<svg id="Ebene_1" data-name="Ebene 1" xmlns="http://www.w3.org/2000/svg" viewBox="0 0 200 115.17"><title>emva_logo_200px</title><path d="M968.54,564.66c-1.39,0-1.45.11-1.45,1.44,0,5.39,3.15,10,8.87,10,1.76,0,3.26-.53,4.91-2.62a.71.71,0,0,1,1,.64,9.33,9.33,0,0,1-8.39,5,9.57,9.57,0,0,1-7.74-3.53,11.35,11.35,0,0,1-2.24-6.94c0-6.57,4.33-12.07,10.73-12.07,4.59,0,7.59,3.15,7.59,6.36a3.26,3.26,0,0,1-.21,1.39c-.16.33-.91.38-3.15.38Zm3.31-1.6c4,0,5.13-.21,5.55-.53.16-.11.32-.32.32-1,0-1.5-1-3.37-4.11-3.37s-5.87,2.88-5.93,4.65c0,.11,0,.27.37.27Z" transform="translate(-861 -482.83)" style="fill:#6e6e6e"/><path d="M1014.15,564.61c0-3.63-1.6-5.5-5-5.5a5.75,5.75,0,0,0-4.43,1.87c-.64.8-.8,1.34-.8,3.21v8.17c0,3.84.11,4.38,2,4.65l1.12.16a.94.94,0,0,1-.11,1.33c-1.6-.11-3.15-.16-5-.16s-3.37.05-4.86.16a.93.93,0,0,1-.11-1.33l1-.16c2-.32,2-.8,2-4.65v-7.75c0-3.58-1.6-5.5-4.91-5.5a5.74,5.74,0,0,0-4.49,1.92c-.54.64-.8,1.33-.8,3v8.28c0,3.84.11,4.33,2,4.65l1,.16a.93.93,0,0,1-.11,1.33c-1.44-.11-3-.16-4.86-.16s-3.53.05-5.18.16a.93.93,0,0,1-.11-1.33l1.28-.16c2-.27,2-.8,2-4.65V563c0-2.08,0-2.35-1.44-3.31l-.48-.32a.73.73,0,0,1,.05-1,29.13,29.13,0,0,0,5.34-2.62.62.62,0,0,1,.58.37c-.11,1.23-.11,2-.11,2.51a.56.56,0,0,0,.59.58,12.82,12.82,0,0,1,7.1-2.72c2.67,0,4.17,1,5.66,3.15a1.67,1.67,0,0,0,1.33-.43,13.39,13.39,0,0,1,7.26-2.72c4.27,0,6.36,2.94,6.36,6.62v9.19c0,3.84.11,4.38,2,4.65l1.28.16a.93.93,0,0,1-.11,1.33c-1.76-.11-3.31-.16-5.18-.16s-3.37.05-4.86.16a.93.93,0,0,1-.11-1.33l1-.16c2-.32,2-.8,2-4.65Z" transform="translate(-861 -482.83)" style="fill:#6e6e6e"/><path d="M1022.75,562.58c-.8-2-1.28-3.68-3.21-4l-1.07-.16c-.32-.43-.27-1.17.16-1.33,1.33.11,3.2.16,5,.16,1.44,0,2.51-.05,4.33-.16a.93.93,0,0,1,.06,1.33l-.64.11c-1.65.27-1.71.54-1.17,2.14,1.23,3.69,2.78,7.42,4,10.2a8.7,8.7,0,0,0,.85,1.71,6.45,6.45,0,0,0,1-2c.7-1.81,2.51-6.46,3-7.85a12,12,0,0,0,1-3.31c0-.48-.32-.7-1-.8l-1.23-.16a1,1,0,0,1,.11-1.33c1.65.11,3,.16,4,.16,1.34,0,2.24-.05,3.74-.16a1,1,0,0,1,.11,1.33l-.8.11c-1.87.27-2.35,1.66-3.9,4.65-.75,1.44-4.06,9.19-4.91,11.38-.53,1.34-1.07,2.56-1.76,4.38a.62.62,0,0,1-.54.21,1,1,0,0,1-.69-.21c-.43-1.5-1.23-3.58-2-5.56Z" transform="translate(-861 -482.83)" style="fill:#6e6e6e"/><path d="M1051.65,567.28c.8-.27.85-.75.91-1.55l.05-2.46c.06-2-.59-4.65-3.9-4.65-1.49,0-3.31.75-3.42,2.41-.06.85-.11,1.49-.54,1.81a5.73,5.73,0,0,1-3,1,.68.68,0,0,1-.75-.75c0-2.78,6-6.57,9.93-6.57s5.72,2.24,5.56,6.25l-.32,9.29c-.11,2.46.37,4.65,2.46,4.65a3.09,3.09,0,0,0,1.33-.32c.27-.16.53-.38.69-.38s.37.33.37.7a5.6,5.6,0,0,1-4.49,2.35,4.27,4.27,0,0,1-3.47-1.66c-.21-.32-.53-.75-.85-.75a8.1,8.1,0,0,0-2.08,1.07,7.94,7.94,0,0,1-3.85,1.34,5.53,5.53,0,0,1-3.74-1.23,5,5,0,0,1-1.66-3.74c0-2.08,1-3.31,4.43-4.54Zm-3.31,9.4a6,6,0,0,0,3.26-1.34,3.14,3.14,0,0,0,.7-2.51l.11-3.15c0-.59-.21-.69-.53-.69a10,10,0,0,0-2.19.53c-3.15,1.07-4.7,1.87-4.7,4a3.22,3.22,0,0,0,3.36,3.21" transform="translate(-861 -482.83)" style="fill:#6e6e6e"/><polygon points="76.9 57.99 77.02 58.09 77.47 57.54 77.35 57.45 76.9 57.99" style="fill:#fff"/><path d="M939.24,543.55c-.4-.28-.73.84-1.13.23.31.11.73-.51,1.13-.23" transform="translate(-861 -482.83)" style="fill:#fff"/><path d="M937.88,542.67c-.37,0-.52.58-.87.63l0-.45-.78.28c-.58-.53.57-.31.33-.88l-.23,0c-.12-.67,1.55.36,1.57.38" transform="translate(-861 -482.83)" style="fill:#fff"/><path d="M939.14,545.3l-.14-.55.47-.1c.21.13-.24.43-.33.65" transform="translate(-861 -482.83)" style="fill:#fff"/><path d="M936.06,545.79l.71-.38Z" transform="translate(-861 -482.83)" style="fill:#fff"/><path d="M936.08,547.63l-.35-.28c.12.09.26.26.47.14l.21-.74c-.09.31,0,.62-.33.88" transform="translate(-861 -482.83)" style="fill:#fff"/><path d="M934.38,548.07c-.26-.26.73-.65.24-1l-.47.09c0-.46.71-.86.47-1.24a1.72,1.72,0,0,1-.24,2.1" transform="translate(-861 -482.83)" style="fill:#fff"/><path d="M933.58,549.52l-.57.69c-.11-1.15,1.13-1,1.46-1.35-.19.42-.71.58-.89.66" transform="translate(-861 -482.83)" style="fill:#fff"/><path d="M934.26,551.42c-.61-.26.64-.49.57-1.12-.12.53-.42.66-.57,1.12" transform="translate(-861 -482.83)" style="fill:#fff"/><path d="M878.88,554.37l.24.82-.06-.21-.33.1c-.16-.28.08-.44.15-.7" transform="translate(-861 -482.83)" style="fill:#fff"/><path d="M880.37,554.82c.06.21.12.52.35.59-.2.15-.42.27-.51.57l-.34-.55Z" transform="translate(-861 -482.83)" style="fill:#fff"/><path d="M927.58,501.18l-1-.27,0-.15c.35.07.53.43.94.42" transform="translate(-861 -482.83)" style="fill:#fff"/><path d="M925.2,501.12c0-.19-.22-.22-.37-.26l.08-.26Z" transform="translate(-861 -482.83)" style="fill:#fff"/><path d="M927.89,502.76l-.51-.3c.2.18.39-.07.59,0Z" transform="translate(-861 -482.83)" style="fill:#fff"/><polygon points="68.27 20.91 68.42 20.95 68.57 20.39 68.42 20.35 68.27 20.91" style="fill:#fff"/><path d="M925.49,504.93c-.22-.22-.76.29-.65-.34Z" transform="translate(-861 -482.83)" style="fill:#fff"/><polygon points="68.08 25.33 68.43 25.15 68.33 24.97 68.08 25.33" style="fill:#fff"/><path d="M936,511.4l-.08.29c-.55.07,0-.35-.29-.51.11,0,.36,0,.37.23" transform="translate(-861 -482.83)" style="fill:#fff"/><path d="M937.63,512.33c-.12,0-.34-.12-.44,0l-.58-.63c.2.4.85.2,1,.59" transform="translate(-861 -482.83)" style="fill:#fff"/><path d="M896.4,502.12l-.08-.18h.44l-.17-.51c0,.32.33.62-.19.69" transform="translate(-861 -482.83)" style="fill:#fff"/><path d="M938.31,513.7c-.41.23-.65-.46-.91-.53l1,.39Z" transform="translate(-861 -482.83)" style="fill:#fff"/><path d="M937.82,514.9l-.49.77c.08.4-.06-.45.27-.52l-.18-.36L937,515c-.53-.11.52-.41.42-.94a.69.69,0,0,1,.36.84" transform="translate(-861 -482.83)" style="fill:#fff"/><path d="M934.9,514.1l-.33-.37.77-.1c0,.29-.25.34-.44.47" transform="translate(-861 -482.83)" style="fill:#fff"/><path d="M928.63,497.2a4.31,4.31,0,0,1-1-3c.58-.25,1.58.18,2.19.49,1.34.9-.23,2.33-1.14,2.56" transform="translate(-861 -482.83)" style="fill:#008ed0"/><path d="M887.73,495.74c-.11.11-.25.29-.45.22l.23-.44Z" transform="translate(-861 -482.83)" style="fill:#008ed0"/><path d="M877,531.71c-.37,1-1,0-1.21.13a1.19,1.19,0,0,1,1.21-.12" transform="translate(-861 -482.83)" style="fill:#fff"/><path d="M876.35,535.31l.43-1.07Z" transform="translate(-861 -482.83)" style="fill:#f9b900"/><path d="M873,533.94l-.44-.25.45-.78c0,.33.2.67,0,1" transform="translate(-861 -482.83)" style="fill:#fff"/><path d="M873.8,539.37c.53-.3,1.05-.27,1.51-1-.28,1.1-1,.76-1.51,1" transform="translate(-861 -482.83)" style="fill:#f9b900"/><path d="M873.22,538.48l-.26.12c.34-1.06-.9-.8-.57-1.65.3.5.62,1.9.83,1.52" transform="translate(-861 -482.83)" style="fill:#f9b900"/><path d="M874.24,534.08a.72.72,0,0,1-.27,0,.5.5,0,0,1,0,.11Z" transform="translate(-861 -482.83)" style="fill:#f9b900"/><path d="M879.05,525.6c.94-4,1.84-8,4.41-11.94a13.81,13.81,0,0,1,1.56-2.41,29.62,29.62,0,0,0,2.5,2.67c.74,1.39,2,1.9,2.73,3.29,1.81,2,3.36,4.23,5,6.35a14.34,14.34,0,0,1,2.32,3.32c-6.22-.21-12.36-.89-18.53-1.28m24.52-.41a87.43,87.43,0,0,0-14.77-17.63,30.07,30.07,0,0,0,5.17-4.65l-.85-.76a19.93,19.93,0,0,0-6.58,3.37q-4.21-3.77-8.73-7.29l-.52.23.07.31-.31.1.12.46c.12.13.28,0,.41,0l0,.17c-.36.09-.35.79-.75.64,0-.1-.07-.18,0-.27-.15,0-.22.15-.27.23.34,0,.15.36.22.53a21.3,21.3,0,0,1,2.25,2.77c.07.2.45.54.64.23l.1.31c-.4.7.8.85.81,1.55-.09.44.92,0,.43.63.62.87,1.27,1.76,1.94,2.65a42.76,42.76,0,0,0-8.19,13.37,19.54,19.54,0,0,0-1.19,3.27c-1.5,0-3-.05-4.52,0-2.19,0-4.24.85-6.43.63-.56.12-1.42-.6-1.59-.26l.16,0c.06.47.22-.09.45.12.23.46.08,1,.18,1.32-.72-.23-.24.85-.89.4l.39.22c1.6,2.56,4.84,2.72,7.38,3.23l3.88.23c-.17,1.59-.33,3.18-.64,4.79.46-.45.22-.92.43-1.35.44-.82,1.08-.57,1.53-.53,0-.21-.14-.41.07-.62-.56.16-.74,0-.73-.7.65.43,1.53-1,1.76.2l.6-.7c.5,0,.15.69.46.82.4-.75.41.24.8-.09l0-.29c.18-.41.31-.84.47-1.26l10.21.6.24-.41c.95-.88,1.22.79,2,.39,4.39.94,8.93.57,13.38.86l2.28-.27c1.09-.45-.25-1.22.62-1.74-.79-1,.26-1.39.79-2.08.35-2.28-2.19-2.45-3.32-3.63" transform="translate(-861 -482.83)" style="fill:#f9b900"/><path d="M877,498.44l-.29.49.1.06c0-.12.13-.12.21-.13-.35-.2.14-.2,0-.43" transform="translate(-861 -482.83)" style="fill:#f9b900"/><path d="M879.79,534.69c-.48-.09-1.12-.06-1.34.43.41-.26,1.13.19,1.34-.43m39.4-9.19c.37.08.52.72,1,.5-.21-.31-.58-.65-1-.5m2-23.3a17.85,17.85,0,0,0-6.43-3.08c-.34-.06-.67-.08-1-.13l.41,13.06c.35.3-.24.78.41.82,2.35-3.56,4.47-7.13,6.62-10.66m28.45,9.08c-1.09,0-.18,1.9-1.59,2.09-.35-.93-.63.43-1,.05l0-.2a.68.68,0,0,0-1,.05c-.2-.54-.83-1.15-1.07-.62,0-.2.22-.37.06-.54-1.05.56-2.51,1.75-3.8.61-.2-1.11-2.28-.33-1.71-1.81.09-2-2.85-.33-2.29-2.52-1.08-.44-2.16-.88-3.22-1.35a56.24,56.24,0,0,1,5.52,7.58c-.44.25-.84-.23-.72-.63l0-.15c-.07-.3-.38-.07-.59,0a1.56,1.56,0,0,0,.35,1.44c.1-.16.33-.07.44,0-.18.67-.5-.32-.56.47l.33.37-.16.11c0-.4-.35-.65-.68-.78s-.22.22-.26.36c.15.57.83-.18.43.59-.18-.14-.37-.23-.47-.44-.65.32.31.34.1.78l.41.11c-.61.64-.87-.68-1.42-.83a6.39,6.39,0,0,1-2.61-2.37c-.23.15-1.06-.45-1.41-.86a53.77,53.77,0,0,0-6.15-6.36c-3.11,5-6.51,9.8-9.69,14.67-1.81,2.63-2.46,6.61-5.42,7.89l-.68-.44c-.41-3.45-3-7.4-2.63-11a42.06,42.06,0,0,1-1.12-9.19c-.64.63-1.17.13-1.91.18.24-.46-.35-1.14-.47-1.14.48-.74.93-1.86,2.07-1.5a2.63,2.63,0,0,1,.2.23c0-.67,0-1.33-.08-2,.06-1.74,0-3.4,0-5.05a47.25,47.25,0,0,0-10.64,3.29l-.31-1.15c.28.11,1.18-.23.84-.79,0-.2-.25-.22-.39-.27l-.33.19a26.51,26.51,0,0,1,11.14-5.31,15.94,15.94,0,0,1,.28-1.63c.62-2.31,1.05-4.79,1.67-7-.42-.17,0-.6-.16-.9.84-.51-.06-2.17,1.16-2.55.79-.15,1.12-.26,1.81.2.63.88.12,1.78.81,2.42l.8,7.95,0,1.09a26,26,0,0,1,7.19,1.53,22.67,22.67,0,0,1,3.08,1.72c1.65-2.62,3.35-5.21,5.24-7.71,2-1.25,3-3.72,5.28-4.73l.56.49c.23-1.15,1.48-.11,1.85-.91a62.13,62.13,0,0,1-2.87,7,75.26,75.26,0,0,1-4.75,10q1.94,1.8,3.75,3.79a22.13,22.13,0,0,0,4.63,1.53c1.21-1.3,2.4,1.13,3.44,0,1.18.49,2.38-1,3.44.28.35.56,1.14.87,1.11,1.64.2.17.4-.12.6-.16l.09-.42a4.5,4.5,0,0,0,2.31.06c-.37,1.07,1.23,1.4.86,2.47Zm-62.87-16c.1.37.46.43.69.65a.66.66,0,0,0,.64-1c-.5-.11-1.11-.12-1.33.39m-4.72-8.9-.11.38-2.71-.2c-.6.27-2.33,0-1.72,1-.45-.47-.23.17-.68-.3,0-.2.17-.28.3-.35l-.08-.14-.52.29.08.14c1,2.23,4,2.39,6,3.54a1.4,1.4,0,0,0,1.76.05c1.28-.8.07-1.78-.07-2.92-.93-.55-.9-1.47-2.24-1.47M891.39,502c-.3.24-.68.71-.48,1a1.29,1.29,0,0,0,1.47-.15,1,1,0,0,0-.07-1c-.35-.24-.65,0-.92.16m3-8.44a2.09,2.09,0,0,1-.4,1.78c-.58.19-1.1,1.05-1.77.5-.12-.4-.77-.72-1-1.37.38-.61.68-1.28,1.54-1.55.69.4,1.23-.12,1.59.65" transform="translate(-861 -482.83)" style="fill:#008ed0"/><path d="M884.48,564.43a1.43,1.43,0,0,1-.91,1.18l-2.52-.49a.93.93,0,0,1-.09-1c1.15-.19,2.65-.91,3.53.34" transform="translate(-861 -482.83)" style="fill:#009b59"/><path d="M916.65,571.52c-2.53.59-4.48,2.48-7.21,1.66.07-.8.11-1.61.15-2.43a24.06,24.06,0,0,0,10.93-3c-1,1.5-2.71,2.38-3.86,3.76m-6-20.66a133.29,133.29,0,0,1,10.88,13,13.8,13.8,0,0,1-3.77,1.93,50.81,50.81,0,0,1-8.1,1.59c.05-5.58-.17-11.32,1-16.5m12.88,4.59.24.49-.1,0-.36-.42Zm4.3,5.85c.37-.49.74-1,1.09-1.53.39-1.12,2-3.21.54-3.8-.82.92-1.65,1.86-2.49,2.8-.18-.9-.56-1.84.16-2.53a3,3,0,0,1-1.92-1.11,1,1,0,0,1,1-.14l.21-.74c.26-.35,1-.95,1.29-.23l-.28-.5c1.37-.84-1-1.2,0-2.22-.69-1.16-1.66-2.35-3-2.41-.41.72-1.23.5-1.92.27.21.14.09.44,0,.6-1.68.29-.68,1.7-2.45,1.56.43.72,1.09,1.11,1.14,2-4-4.6-8.2-9.15-11.05-14.3-.11.8-.79,2.1-2,1.63a53.67,53.67,0,0,0-5.51,26,11.5,11.5,0,0,1-3.42-1.88c-.81.2-.76,1.21-1.1,1.82.17,2.63,2.54,2.56,4,3.59l.71.12a59.84,59.84,0,0,0,1.13,7.6c1,1.53.15,4.85,3,4.65a24.94,24.94,0,0,0,2-7.41,1,1,0,0,1,.09.24l2.24-1.4c2,1.68,3.29-.77,4.88-1.68.75.79,1.22-.59,2.14-.42.41-1.78,2.17-1.92,3.3-3.12a5.27,5.27,0,0,0,1.9-2.07c1.82,2.26,3.71,4.48,5.77,6.58l1.74,4c.82.54,1.67-.4,2.5-.66-.42-5.82-2.78-10.72-6-15.24" transform="translate(-861 -482.83)" style="fill:#009b59"/><path d="M899.51,575.07c.18.26,0,.84.59.75.9,0,2.38-.69,1.95-1.86a1.72,1.72,0,0,0-2.54,1.11" transform="translate(-861 -482.83)" style="fill:#009b59"/><path d="M897.72,575c.19.22.29.63.65.56s.49-.41.79-.58c.21-1.21-1.33-.66-1.44,0" transform="translate(-861 -482.83)" style="fill:#009b59"/><path d="M869.32,568.16c-.95.37-2.77-.18-2.94,1.21,1.28-.07,3.16,1,3.78-.6-.28-.2-.37-.65-.84-.61" transform="translate(-861 -482.83)" style="fill:#009b59"/><path d="M933.36,552.08l.21.17a.28.28,0,0,0,0-.22Z" transform="translate(-861 -482.83)" style="fill:#e42e36"/><path d="M933.57,552.25c-.08.16-.27.3-.35.43a.3.3,0,0,1-.44.07c.05.07.06.21,0,.47l-.42.09c0,.25-.35.71.09.79,0-.85.87-1.25,1.48-1.57Z" transform="translate(-861 -482.83)" style="fill:#e42e36"/><path d="M925.25,534.32l.08-.18c3.94-.77,7.86-1.9,11.78-2.91-.14,2.35-.3,4.65-.41,6.79-3.85-1.24-7.69-2.38-11.45-3.7m31.36,13.48-.72-.44c-1.11.67.06-.88-.9-.94-.57-1.09-2.2-1.68-3.49-2.15l.09-.15a68.1,68.1,0,0,0-9.53-4.26c.33-1.05.67-2.1.92-3.17a35.82,35.82,0,0,0,.13-7.24,21.8,21.8,0,0,0,7.64-3.56c0-1.2,1.7-1.47,1.87-2.24-.53.16-.53.9-1.2.58l.17-.35c.51-.54-.46-.92.12-1.61-.35,0-.32.41-.48.62-.35-.23-.39-.36-.28-.75-.13,0-.3.14-.43,0l.17-.33c-.18-.11-.25-.53-.55-.39a68.58,68.58,0,0,0-7.79,1.16c-.07-.53-.14-1.06-.21-1.59-.32-.75-.15-2.63-1.71-1.84-.92,1.6-2.68,2.21-3,4.18,0,.12,0,.25,0,.36-7.55,1.9-15.12,4.52-22.54,6.47-1.85,1.29-4.81,2.49-4.31,5.25,5.87,2.28,12.37,5.57,18.6,7.23,1.91.72,3.83,1.32,5.75,1.85-1,2.77-2,5.53-3.22,8.24.28.2.75-.1,1-.07-.14-.12-.25-.29-.31-.29.38-.65,1-.89,1.46-1.35.26.31-.14,1,.44,1.08l.66-.37,0,.21c-.44.4-.71,1.29-1.34,1.2l0,.22a1.31,1.31,0,0,1,1.57.38,52.19,52.19,0,0,0,4.66-8c4.93,1.13,9.88,2,14.8,3.49.35.22.44-.31.71,0l.18-.62c.13-.05.3-.14.41,0l-.14.34c1-.35-.21-1.22.84-1.16" transform="translate(-861 -482.83)" style="fill:#e42e36"/><path d="M884.65,568.45l0,0c-.06.12,0,.06,0,0" transform="translate(-861 -482.83)" style="fill:#0f4093"/><path d="M884.36,558.45a22.46,22.46,0,0,1-3.16-4q5.31-2.58,10.27-5.6a96.55,96.55,0,0,1-7.11,9.62m19.92-18.53c-.85-.16-1-.58-1.23-1.23-1.19-.58-2.07.31-3.24.41-2.39,1.91-6,2.48-8.86,3.1-4.29,2.06-8.72,3.86-12.81,6a57.87,57.87,0,0,1-2.16-7c-.6-.94-1.25,0-1.83-.39l-.59,1.53a54.55,54.55,0,0,0,1.87,7.41,31.71,31.71,0,0,0-7.66,6.1c0,1.15-1.35,2.27-.65,3.38a4.74,4.74,0,0,0,2.24.18c3-1,5.81-2.21,8.6-3.46.14.28.25.58.4.86a19.2,19.2,0,0,0,3.82,4.64,37.5,37.5,0,0,0-2.36,3.83c-.15.15.35,0,.13.35-.07,0-.17.11-.29,0-.21.52-1,.92-.66,1.62l.34-.16.23.55.18-.08c0,.53.33.68.66.85l-.35-.57c.13-.46.77-.39,1-.63l.63,1,.51-.22c.14.09.46.07.44.34s-.05.43-.33.44l.16.34a.26.26,0,0,1-.24.2l.5-.1c-.44-.49.51-.65,0-1l.18-.08c.25.13.62.13.7.44l-.28.31a.9.9,0,0,0,1-.18c-.13-.06-.32-.11-.34-.29l.72-.28c.1.07,0,.25,0,.36.93-1.2,1.88-2.38,2.84-3.56a15.34,15.34,0,0,0,4.88,1.38c.11-1.66-1.07.13-1-1.54.38-.29,1.1.8,1.12-.33,0-.4.33-1.08-.35-1.2l.17-.52c.19.18.48.18.51.51.35-.39-1.22-.85-1.77-.78-.43-.11-.84-.26-1.25-.41,5-6.11,9.79-12.4,12.34-20.47.56-.69,1.6-.87,2.11-1.6" transform="translate(-861 -482.83)" style="fill:#0f4093"/><path d="M884.58,567.9c-.14,0-.16-.13-.21-.24,0-.48.46-.39.75-.43-.12.29-.17.63-.54.66" transform="translate(-861 -482.83)" style="fill:#fff"/><path d="M882.91,567.68c-.21-.14-.24-.52-.41-.77s.47.12.15.37l.5.2c0,.14-.13.16-.24.21" transform="translate(-861 -482.83)" style="fill:#fff"/><polygon points="18.8 89.26 18.85 89.13 18.64 88.62 18.8 89.26" style="fill:#1a1a17"/><path d="M880,567.33c.08-.21-.5-.32-.16-.64.09.31.75.4.16.64" transform="translate(-861 -482.83)" style="fill:#fff"/><path d="M880.64,565.72l-.13-.36c.15,0,.26.26.13.36" transform="translate(-861 -482.83)" style="fill:#fff"/><path d="M877.66,571.22c-.11-.77.54-1.6.56-2.42l.16.37c.07,0,.17-.11.28,0l-.6.06a.93.93,0,0,0,.37.88l-.55-.07Z" transform="translate(-861 -482.83)" style="fill:#1a1a17"/><path d="M878.74,568.59c-1.21.06.25-.84,0-1.32.37.43-.63.72.14,1.06Z" transform="translate(-861 -482.83)" style="fill:#1a1a17"/><path d="M863.75,591.56a2.15,2.15,0,0,0,0,.5c0,1.2.33,2.38,2.07,2.38,1.1,0,1.13-.57,1.35-.57a.12.12,0,0,1,.13.11,2.18,2.18,0,0,1-2.08,1.14c-1.57,0-2.46-1.11-2.46-2.89a2.79,2.79,0,0,1,2.59-3,2.13,2.13,0,0,1,2.19,2c0,.26,0,.33-.28.33Zm2.82-1.12a1,1,0,0,0-1.05-.86,1.72,1.72,0,0,0-1.64,1.43c0,.1,0,.13,1.24.13s1.45-.18,1.45-.7" transform="translate(-861 -482.83)" style="fill:#1a1a17"/><path d="M869,593.1c0-.87,0-2.19,0-3,0-.2-.24-.23-.41-.27-.34-.09-.43-.11-.43-.21s.16-.13.36-.13l.61,0,.63,0c.18,0,.21.07.21.27,0,1.27,0,2.53,0,3.8,0,.58.43.91,1.13.91,1.58,0,1.69-.67,1.71-1.25,0-1,0-2,0-3,0-.17-.07-.17-.74-.34-.11,0-.41-.11-.41-.23s.16-.12.31-.12l.73,0,.84,0a.28.28,0,0,1,.3.3c0,1.44-.06,2.88-.06,4.31a.33.33,0,0,0,.37.34c.56,0,.74,0,.74.14s-.07.14-.28.17c-1,.15-1.58.29-1.71.29s-.11-.1-.11-.23v-.32c0-.12,0-.17-.1-.17-.23,0-.84.84-2,.84-1.34,0-1.71-.81-1.71-2" transform="translate(-861 -482.83)" style="fill:#1a1a17"/><path d="M877.3,593.9c0,.46.17.68,1.22.68a.17.17,0,0,1,.19.19c0,.14-.17.15-.33.15-.43,0-.87-.06-1.3-.06s-.88.06-1.33.06c-.1,0-.31,0-.31-.17a.21.21,0,0,1,.1-.17c.54-.13.78-.13.78-1.17v-2.2c0-.9-.55-.78-.55-1s.31-.2.57-.43.58-.74.77-.74a.16.16,0,0,1,.17.17v.41c0,.23,0,.37.11.37s.7-.73,1.41-.73c.3,0,.83.11.83.64a.66.66,0,0,1-.73.64c-.33,0-.67-.32-1-.32-.47,0-.66.47-.66.89Z" transform="translate(-861 -482.83)" style="fill:#1a1a17"/><path d="M885.71,592.15a2.74,2.74,0,0,1-2.82,3,2.65,2.65,0,0,1-2.78-2.92,2.74,2.74,0,0,1,2.82-3,2.88,2.88,0,0,1,2.78,2.92m-1.08,0c0-1.1-.64-2.55-1.71-2.55s-1.72,1.11-1.72,2.7c0,1.07.64,2.52,1.71,2.52s1.72-1.11,1.72-2.66" transform="translate(-861 -482.83)" style="fill:#1a1a17"/><path d="M887.25,590.61c0-.25-.06-.34-.14-.4s-.67-.06-.67-.27.68-.28,1.08-.48.48-.46.67-.46.16.1.16.2-.07.39-.07.64,0,.26.09.26a4.56,4.56,0,0,1,1.79-.47,2.4,2.4,0,0,1,2.62,2.46,3,3,0,0,1-4.37,2.56.13.13,0,0,0-.14.14v2.46c0,.28.2.35.9.4.19,0,.31,0,.31.17s-.17.17-.48.17-.66,0-1.19,0-.92,0-1.4,0c-.13,0-.31,0-.31-.19s.07-.14.2-.16c.53-.05,1-.08,1-.65Zm1,3.06c0,.63,1.1,1,1.54,1a2.08,2.08,0,0,0,2.14-2.19,2.35,2.35,0,0,0-2.57-2.29c-.13,0-1.11.09-1.11.5Z" transform="translate(-861 -482.83)" style="fill:#1a1a17"/><path d="M894.58,591.56a2.15,2.15,0,0,0,0,.5c0,1.2.33,2.38,2.07,2.38,1.1,0,1.13-.57,1.35-.57a.11.11,0,0,1,.13.11,2.17,2.17,0,0,1-2.08,1.14c-1.56,0-2.46-1.11-2.46-2.89a2.79,2.79,0,0,1,2.59-3,2.13,2.13,0,0,1,2.19,2c0,.26,0,.33-.28.33Zm2.82-1.12a1,1,0,0,0-1.06-.86,1.72,1.72,0,0,0-1.64,1.43c0,.1,0,.13,1.24.13s1.45-.18,1.45-.7" transform="translate(-861 -482.83)" style="fill:#1a1a17"/><path d="M903,593.7a.4.4,0,0,0,.46.46c.4,0,.4-.27.61-.27a.14.14,0,0,1,.16.13,1.25,1.25,0,0,1-1.19.85,1.36,1.36,0,0,1-1.08-.66,2.47,2.47,0,0,1-1.81.8,1,1,0,0,1-1.1-1.05c0-1.45,1.83-2,1.95-2a9.9,9.9,0,0,1,1.05-.36,1.64,1.64,0,0,0,.07-.42c0-.85,0-1.41-.91-1.41-1.49,0-.94,1.65-1.89,1.65-.27,0-.31-.17-.31-.34a2.86,2.86,0,0,1,2.65-1.74c1.35,0,1.35.9,1.35,1.25Zm-.93-1.25c0-.46-.1-.5-.18-.5s-1.79.4-1.79,1.64a.75.75,0,0,0,.77.77,1.21,1.21,0,0,0,1.21-1.25Z" transform="translate(-861 -482.83)" style="fill:#1a1a17"/><path d="M905.51,591.06c0-.79-.61-.51-.61-.79s.21-.16.56-.47.77-.75.91-.75.14.06.14.19V590a2.82,2.82,0,0,1,1.81-.74c1.91,0,1.92,1.42,1.92,2.06V594c0,.33,0,.57.4.63.2,0,.5,0,.5.18s-.1.16-.3.16c-.41,0-.84-.06-1.14-.06s-.72.06-1,.06-.28,0-.28-.14.13-.18.2-.2c.4-.09.7-.1.7-.86v-2.36c0-.57-.07-1.54-1.2-1.54a1.9,1.9,0,0,0-1.56.67c0,.36,0,.69,0,1v2.21c0,.5,0,.75.64.86.19,0,.43,0,.43.18s-.17.16-.31.16h0c-.14,0-.69-.06-1-.06s-.71.06-1,.06c-.1,0-.45,0-.45-.16s.13-.17.21-.18c.38-.07.54-.37.54-1.05Z" transform="translate(-861 -482.83)" style="fill:#1a1a17"/><path d="M920,591c0-.23,0-1.07-1.26-1.07s-1.51.67-1.51,1.41c0,.59-.07,1.24-.07,1.77,0,1.2,0,1.29.61,1.47.17,0,.34.08.34.14s-.07.2-.36.2-.58-.06-1.21-.06-.8.06-1.16.06c-.07,0-.2,0-.2-.14s.24-.18.4-.2c.6-.06.6-.66.6-1.88v-1.92c0-.35-.53-.46-.53-.61a.14.14,0,0,1,.09-.13,8.47,8.47,0,0,1,1.39-.81c.2,0,.17.3.17.3v.56a2.2,2.2,0,0,1,1.88-.85,2.31,2.31,0,0,1,1.75.91,2.63,2.63,0,0,1,1.83-.91,1.88,1.88,0,0,1,2,1.95v3a.37.37,0,0,0,.27.4c.24.1.64.08.64.21s-.13.13-.21.13-.92-.06-1.24-.06-1.18.06-1.3.06-.23-.06-.23-.11.14-.16.64-.23.46-.77.46-1.38v-2c0-.48-.13-1.28-1.44-1.28-.88,0-1.4.49-1.4,1v3.32c0,.26.2.27.64.34.08,0,.34.06.34.2s-.18.14-.36.14c-.4,0-.47-.06-1.11-.06s-.88.06-1.25.06c-.21,0-.27,0-.27-.14s.23-.14.4-.2c.64-.21.64-.33.64-1.64Z" transform="translate(-861 -482.83)" style="fill:#1a1a17"/><path d="M930.32,593.7a.4.4,0,0,0,.46.46c.4,0,.4-.27.61-.27a.14.14,0,0,1,.16.13,1.25,1.25,0,0,1-1.19.85,1.36,1.36,0,0,1-1.08-.66,2.47,2.47,0,0,1-1.81.8,1,1,0,0,1-1.1-1.05c0-1.45,1.84-2,2-2a10.29,10.29,0,0,1,1.05-.36,1.48,1.48,0,0,0,.07-.42c0-.85,0-1.41-.91-1.41-1.49,0-.94,1.65-1.89,1.65-.27,0-.32-.17-.32-.34a2.86,2.86,0,0,1,2.65-1.74c1.35,0,1.35.9,1.35,1.25Zm-.92-1.25c0-.46-.1-.5-.19-.5s-1.79.4-1.79,1.64a.75.75,0,0,0,.77.77,1.21,1.21,0,0,0,1.21-1.25Z" transform="translate(-861 -482.83)" style="fill:#1a1a17"/><path d="M935.14,589.23c.47,0,1.49.1,1.49.71,0,.26-.16.37-.4.37-.58,0-.65-.74-1.41-.74s-1.91.78-1.91,2.75a2,2,0,0,0,2.16,2.18,2.83,2.83,0,0,0,1.28-.33s.09,0,.09.11c0,.24-.87.84-1.84.84a2.65,2.65,0,0,1-2.66-2.79,3,3,0,0,1,3.19-3.1" transform="translate(-861 -482.83)" style="fill:#1a1a17"/><path d="M939.26,590c0,.09,0,.19.06.19a3.19,3.19,0,0,1,2-.91,1.67,1.67,0,0,1,1.75,1.92v2.62c0,.58.1.71.41.81s.37.06.38.18-.18.16-.34.16c-.37,0-.72-.06-1.1-.06s-.67.06-1,.06c-.09,0-.21,0-.21-.14s.11-.11.41-.2.42-.41.42-.88v-2.85c0-.58-.53-1-1.28-1a1.38,1.38,0,0,0-1.52,1.17v3c0,.4.17.5.71.55.3,0,.4,0,.4.18s-.14.16-.27.16c-.3,0-.8-.06-1.19-.06s-.87.06-1.3.06c-.1,0-.23,0-.23-.16s.11-.17.24-.18a.63.63,0,0,0,.65-.73v-6.91c0-.27-.71-.33-.71-.51a.21.21,0,0,1,.11-.19,9.41,9.41,0,0,1,1.32-.46c.24,0,.24.16.24.5Z" transform="translate(-861 -482.83)" style="fill:#1a1a17"/><path d="M946.7,594.05c0,.43.21.4.57.53.12,0,.33,0,.33.18s-.23.16-.35.16c-.37,0-.73-.06-1.1-.06s-.78.06-1.18.06c-.11,0-.27,0-.27-.16s0-.14.25-.18c.57-.11.78-.24.78-.8v-3c0-.5-.69-.27-.69-.56s.39-.14.76-.39c.69-.45.75-.57.85-.57s.1,0,.1.1c0,.24-.06.48-.06.73Zm.13-7.34a.61.61,0,1,1-.61-.61.65.65,0,0,1,.61.61" transform="translate(-861 -482.83)" style="fill:#1a1a17"/><path d="M949.41,591.06c0-.79-.61-.51-.61-.79s.21-.16.56-.47.77-.75.91-.75.14.06.14.19V590a2.82,2.82,0,0,1,1.81-.74c1.91,0,1.92,1.42,1.92,2.06V594c0,.33,0,.57.4.63.2,0,.5,0,.5.18s-.1.16-.3.16c-.41,0-.84-.06-1.14-.06s-.72.06-1,.06-.28,0-.28-.14.13-.18.2-.2c.4-.09.7-.1.7-.86v-2.36c0-.57-.07-1.54-1.2-1.54a1.9,1.9,0,0,0-1.56.67c0,.36,0,.69,0,1v2.21c0,.5,0,.75.64.86.19,0,.43,0,.43.18s-.17.16-.31.16h0c-.14,0-.69-.06-1-.06s-.71.06-1,.06c-.1,0-.46,0-.46-.16s.13-.17.21-.18c.39-.07.54-.37.54-1.05Z" transform="translate(-861 -482.83)" style="fill:#1a1a17"/><path d="M956.67,591.56a2.15,2.15,0,0,0,0,.5c0,1.2.33,2.38,2.07,2.38,1.1,0,1.13-.57,1.35-.57a.11.11,0,0,1,.13.11,2.17,2.17,0,0,1-2.08,1.14c-1.57,0-2.46-1.11-2.46-2.89a2.79,2.79,0,0,1,2.59-3,2.13,2.13,0,0,1,2.19,2c0,.26,0,.33-.28.33Zm2.82-1.12a1,1,0,0,0-1.06-.86A1.72,1.72,0,0,0,956.8,591c0,.1,0,.13,1.24.13s1.45-.18,1.45-.7" transform="translate(-861 -482.83)" style="fill:#1a1a17"/><path d="M967.76,595c0,.07-.07.13-.14.13s-.14-.06-.18-.15l-2.25-4.83c-.17-.37-.78-.27-.78-.54,0-.11.05-.14.43-.14l1.2,0c.39,0,.77,0,1.15,0,.19,0,.21.07.21.14,0,.26-.91.06-.91.41a1.17,1.17,0,0,0,.11.39l1.11,2.8a.15.15,0,0,0,.16.12c.09,0,.13-.09.15-.14l1.06-2.86a.85.85,0,0,0,0-.25c0-.29-.82-.24-.82-.46s0-.14.24-.14.67,0,1,0l.82,0c.21,0,.26,0,.26.14s-.68,0-1,.84Z" transform="translate(-861 -482.83)" style="fill:#1a1a17"/><path d="M973.19,594.05c0,.43.21.4.57.53.11,0,.33,0,.33.18s-.23.16-.36.16c-.37,0-.73-.06-1.1-.06s-.78.06-1.18.06c-.11,0-.27,0-.27-.16s0-.14.26-.18c.57-.11.78-.24.78-.8v-3c0-.5-.68-.27-.68-.56s.39-.14.76-.39c.69-.45.76-.57.85-.57s.1,0,.1.1c0,.24-.06.48-.06.73Zm.13-7.34a.61.61,0,1,1-.61-.61.65.65,0,0,1,.61.61" transform="translate(-861 -482.83)" style="fill:#1a1a17"/><path d="M975.12,593.84c0-.27,0-.44.17-.44s.17.24.23.37a1.5,1.5,0,0,0,1.24,1c.56,0,1.14-.28,1.14-1,0-1.27-2.69-1.24-2.69-2.91a1.58,1.58,0,0,1,1.77-1.63c1.51,0,1.52.23,1.52.87s0,.66-.13.66c-.41,0-.28-1.12-1.41-1.12a.84.84,0,0,0-.92.86c0,1.07,2.83,1.49,2.83,3,0,.71-.46,1.66-2,1.66-.41,0-1.75-.06-1.75-.57Z" transform="translate(-861 -482.83)" style="fill:#1a1a17"/><path d="M981.88,594.05c0,.43.21.4.57.53.11,0,.32,0,.32.18s-.23.16-.35.16c-.37,0-.73-.06-1.1-.06s-.78.06-1.18.06c-.12,0-.27,0-.27-.16s0-.14.26-.18c.57-.11.78-.24.78-.8v-3c0-.5-.68-.27-.68-.56s.38-.14.75-.39c.7-.45.75-.57.85-.57s.1,0,.1.1c0,.24-.06.48-.06.73Zm.13-7.34a.61.61,0,1,1-.61-.61.64.64,0,0,1,.61.61" transform="translate(-861 -482.83)" style="fill:#1a1a17"/><path d="M989.32,592.15a2.74,2.74,0,0,1-2.82,3,2.65,2.65,0,0,1-2.77-2.92,2.74,2.74,0,0,1,2.82-3,2.88,2.88,0,0,1,2.78,2.92m-1.08,0c0-1.1-.64-2.55-1.71-2.55s-1.72,1.11-1.72,2.7c0,1.07.64,2.52,1.71,2.52s1.72-1.11,1.72-2.66" transform="translate(-861 -482.83)" style="fill:#1a1a17"/><path d="M990.92,591.06c0-.79-.61-.51-.61-.79s.21-.16.55-.47.77-.75.91-.75.14.06.14.19V590a2.82,2.82,0,0,1,1.81-.74c1.91,0,1.92,1.42,1.92,2.06V594c0,.33,0,.57.4.63.2,0,.5,0,.5.18s-.1.16-.3.16c-.41,0-.84-.06-1.14-.06s-.73.06-1,.06-.28,0-.28-.14a.21.21,0,0,1,.2-.2c.4-.09.7-.1.7-.86v-2.36c0-.57-.07-1.54-1.2-1.54a1.89,1.89,0,0,0-1.57.67c0,.36,0,.69,0,1v2.21c0,.5,0,.75.64.86.19,0,.43,0,.43.18s-.17.16-.31.16h0c-.14,0-.69-.06-1-.06s-.71.06-1,.06c-.1,0-.46,0-.46-.16s.13-.17.21-.18c.38-.07.54-.37.54-1.05Z" transform="translate(-861 -482.83)" style="fill:#1a1a17"/><path d="M1004.66,593.7a.4.4,0,0,0,.46.46c.4,0,.4-.27.61-.27a.14.14,0,0,1,.15.13,1.24,1.24,0,0,1-1.19.85,1.36,1.36,0,0,1-1.08-.66,2.46,2.46,0,0,1-1.8.8,1,1,0,0,1-1.1-1.05c0-1.45,1.84-2,2-2a10,10,0,0,1,1.05-.36,1.73,1.73,0,0,0,.07-.42c0-.85,0-1.41-.91-1.41-1.49,0-.94,1.65-1.89,1.65-.27,0-.32-.17-.32-.34a2.85,2.85,0,0,1,2.65-1.74c1.35,0,1.35.9,1.35,1.25Zm-.93-1.25c0-.46-.1-.5-.18-.5s-1.79.4-1.79,1.64a.76.76,0,0,0,.77.77,1.2,1.2,0,0,0,1.21-1.25Z" transform="translate(-861 -482.83)" style="fill:#1a1a17"/><path d="M1006.36,593.84c0-.27,0-.44.17-.44s.17.24.23.37a1.5,1.5,0,0,0,1.24,1c.57,0,1.14-.28,1.14-1,0-1.27-2.69-1.24-2.69-2.91a1.59,1.59,0,0,1,1.77-1.63c1.5,0,1.52.23,1.52.87s0,.66-.13.66c-.41,0-.28-1.12-1.41-1.12a.84.84,0,0,0-.92.86c0,1.07,2.83,1.49,2.83,3,0,.71-.46,1.66-2,1.66-.41,0-1.75-.06-1.75-.57Z" transform="translate(-861 -482.83)" style="fill:#1a1a17"/><path d="M1011.09,593.84c0-.27,0-.44.17-.44s.17.24.23.37a1.5,1.5,0,0,0,1.24,1c.57,0,1.14-.28,1.14-1,0-1.27-2.69-1.24-2.69-2.91a1.58,1.58,0,0,1,1.76-1.63c1.5,0,1.52.23,1.52.87s0,.66-.13.66c-.41,0-.28-1.12-1.41-1.12a.84.84,0,0,0-.93.86c0,1.07,2.83,1.49,2.83,3,0,.71-.46,1.66-2,1.66-.41,0-1.75-.06-1.75-.57Z" transform="translate(-861 -482.83)" style="fill:#1a1a17"/><path d="M1021.33,592.15a2.74,2.74,0,0,1-2.82,3,2.65,2.65,0,0,1-2.77-2.92,2.75,2.75,0,0,1,2.82-3,2.88,2.88,0,0,1,2.78,2.92m-1.08,0c0-1.1-.64-2.55-1.71-2.55s-1.72,1.11-1.72,2.7c0,1.07.64,2.52,1.71,2.52s1.72-1.11,1.72-2.66" transform="translate(-861 -482.83)" style="fill:#1a1a17"/><path d="M1025.27,589.23c.47,0,1.49.1,1.49.71,0,.26-.16.37-.4.37-.58,0-.66-.74-1.41-.74s-1.91.78-1.91,2.75a2,2,0,0,0,2.17,2.18,2.85,2.85,0,0,0,1.28-.33s.08,0,.08.11c0,.24-.87.84-1.83.84a2.65,2.65,0,0,1-2.66-2.79,3,3,0,0,1,3.19-3.1" transform="translate(-861 -482.83)" style="fill:#1a1a17"/><path d="M1029.71,594.05c0,.43.21.4.57.53.11,0,.33,0,.33.18s-.23.16-.36.16c-.37,0-.73-.06-1.1-.06s-.78.06-1.18.06c-.11,0-.27,0-.27-.16s0-.14.25-.18c.57-.11.78-.24.78-.8v-3c0-.5-.68-.27-.68-.56s.39-.14.75-.39c.7-.45.76-.57.85-.57s.1,0,.1.1c0,.24-.06.48-.06.73Zm.13-7.34a.61.61,0,1,1-.62-.61.65.65,0,0,1,.62.61" transform="translate(-861 -482.83)" style="fill:#1a1a17"/><path d="M1035.49,593.7a.4.4,0,0,0,.46.46c.4,0,.4-.27.61-.27a.15.15,0,0,1,.16.13,1.25,1.25,0,0,1-1.19.85,1.35,1.35,0,0,1-1.08-.66,2.47,2.47,0,0,1-1.81.8,1,1,0,0,1-1.1-1.05c0-1.45,1.84-2,2-2a10.06,10.06,0,0,1,1.05-.36,1.78,1.78,0,0,0,.07-.42c0-.85,0-1.41-.91-1.41-1.5,0-.94,1.65-1.89,1.65-.27,0-.32-.17-.32-.34a2.85,2.85,0,0,1,2.65-1.74c1.35,0,1.35.9,1.35,1.25Zm-.93-1.25c0-.46-.1-.5-.18-.5s-1.79.4-1.79,1.64a.75.75,0,0,0,.77.77,1.2,1.2,0,0,0,1.21-1.25Z" transform="translate(-861 -482.83)" style="fill:#1a1a17"/><path d="M1039.35,590.11c-.4,0-.44.11-.44.57,0,.77,0,1.95,0,2.74,0,.59.23.93,1,.93.6,0,.6-.16.88-.16.1,0,.16,0,.16.14s-.41.64-1.45.64-1.57-.4-1.57-1.46,0-2,0-3.08c0-.2-.07-.24-.31-.24h-.32a.11.11,0,0,1-.11-.12c0-.22.68-.34,1-.74.54-.6.43-.84.64-.84s.17.11.17.27v.52c0,.13,0,.19.22.19h1.54c.14,0,.25,0,.25.31s0,.31-.24.31Z" transform="translate(-861 -482.83)" style="fill:#1a1a17"/><path d="M1043.95,594.05c0,.43.21.4.57.53.12,0,.33,0,.33.18s-.22.16-.35.16c-.37,0-.73-.06-1.1-.06s-.78.06-1.18.06c-.12,0-.27,0-.27-.16s0-.14.26-.18c.57-.11.78-.24.78-.8v-3c0-.5-.68-.27-.68-.56s.38-.14.76-.39c.7-.45.75-.57.85-.57s.1,0,.1.1c0,.24-.06.48-.06.73Zm.13-7.34a.61.61,0,1,1-.61-.61.64.64,0,0,1,.61.61" transform="translate(-861 -482.83)" style="fill:#1a1a17"/><path d="M1051.38,592.15a2.74,2.74,0,0,1-2.82,3,2.65,2.65,0,0,1-2.78-2.92,2.75,2.75,0,0,1,2.82-3,2.88,2.88,0,0,1,2.78,2.92m-1.08,0c0-1.1-.64-2.55-1.71-2.55s-1.72,1.11-1.72,2.7c0,1.07.64,2.52,1.71,2.52s1.72-1.11,1.72-2.66" transform="translate(-861 -482.83)" style="fill:#1a1a17"/><path d="M1053,591.06c0-.79-.62-.51-.62-.79s.22-.16.56-.47.77-.75.91-.75.14.06.14.19V590a2.81,2.81,0,0,1,1.8-.74c1.91,0,1.92,1.42,1.92,2.06V594c0,.33,0,.57.4.63.2,0,.5,0,.5.18s-.1.16-.3.16c-.41,0-.84-.06-1.14-.06s-.72.06-1,.06-.28,0-.28-.14.13-.18.2-.2c.4-.09.7-.1.7-.86v-2.36c0-.57-.07-1.54-1.2-1.54a1.89,1.89,0,0,0-1.57.67c0,.36,0,.69,0,1v2.21c0,.5,0,.75.64.86.18,0,.43,0,.43.18s-.17.16-.31.16h0c-.15,0-.69-.06-1-.06s-.71.06-1,.06c-.1,0-.46,0-.46-.16s.13-.17.21-.18c.39-.07.54-.37.54-1.05Z" transform="translate(-861 -482.83)" style="fill:#1a1a17"/></svg>